<?xml version="1.0" encoding="UTF-8"?>
<svg width="700pt" height="700pt" version="1.1" viewBox="0 0 700 700" xmlns="http://www.w3.org/2000/svg" xmlns:xlink="http://www.w3.org/1999/xlink">
 <defs>
  <symbol id="p" overflow="visible">
   <path d="m29.312-1.75c-1.5117 0.78125-3.0898 1.3711-4.7344 1.7656-1.6367 0.40625-3.3398 0.60938-5.1094 0.60938-5.3125 0-9.5273-1.4844-12.641-4.4531-3.1055-2.9688-4.6562-7-4.6562-12.094s1.5508-9.125 4.6562-12.094c3.1133-2.9688 7.3281-4.4531 12.641-4.4531 1.7695 0 3.4727 0.19922 5.1094 0.59375 1.6445 0.39844 3.2227 0.99219 4.7344 1.7812v6.5938c-1.5312-1.0391-3.0391-1.8008-4.5156-2.2812-1.4805-0.48828-3.0391-0.73438-4.6719-0.73438-2.9375 0-5.2461 0.94531-6.9219 2.8281-1.6797 1.875-2.5156 4.4648-2.5156 7.7656 0 3.293 0.83594 5.8828 2.5156 7.7656 1.6758 1.875 3.9844 2.8125 6.9219 2.8125 1.6328 0 3.1914-0.23828 4.6719-0.71875 1.4766-0.48828 2.9844-1.2539 4.5156-2.2969z"/>
  </symbol>
  <symbol id="h" overflow="visible">
   <path d="m21.453-17.406c-0.67969-0.3125-1.3516-0.53906-2.0156-0.6875-0.65625-0.15625-1.3203-0.23438-1.9844-0.23438-1.9688 0-3.4844 0.63281-4.5469 1.8906-1.0547 1.2617-1.5781 3.0703-1.5781 5.4219v11.016h-7.6562v-23.922h7.6562v3.9219c0.97656-1.5625 2.1016-2.7031 3.375-3.4219 1.2812-0.71875 2.8125-1.0781 4.5938-1.0781 0.25 0 0.52344 0.011719 0.82812 0.03125 0.30078 0.023438 0.73438 0.070312 1.2969 0.14062z"/>
  </symbol>
  <symbol id="a" overflow="visible">
   <path d="m27.562-12.031v2.1875h-17.891c0.1875 1.793 0.83203 3.1367 1.9375 4.0312 1.1133 0.89844 2.6719 1.3438 4.6719 1.3438 1.6016 0 3.25-0.23438 4.9375-0.70312 1.6875-0.47656 3.4219-1.2031 5.2031-2.1719v5.8906c-1.8047 0.6875-3.6094 1.2031-5.4219 1.5469-1.8125 0.35156-3.6211 0.53125-5.4219 0.53125-4.3359 0-7.7031-1.0977-10.109-3.2969-2.3984-2.207-3.5938-5.2969-3.5938-9.2656 0-3.9062 1.1758-6.9727 3.5312-9.2031 2.3633-2.2383 5.6094-3.3594 9.7344-3.3594 3.7578 0 6.7695 1.1367 9.0312 3.4062 2.2578 2.2617 3.3906 5.2812 3.3906 9.0625zm-7.8594-2.5312c0-1.457-0.42969-2.6289-1.2812-3.5156-0.84375-0.89453-1.9492-1.3438-3.3125-1.3438-1.4922 0-2.6992 0.41797-3.625 1.25-0.91797 0.83594-1.4922 2.0391-1.7188 3.6094z"/>
  </symbol>
  <symbol id="g" overflow="visible">
   <path d="m14.391-10.766c-1.5938 0-2.793 0.27344-3.5938 0.8125-0.80469 0.54297-1.2031 1.3398-1.2031 2.3906 0 0.96875 0.32031 1.7305 0.96875 2.2812 0.64453 0.54297 1.5469 0.8125 2.7031 0.8125 1.4375 0 2.6445-0.51562 3.625-1.5469 0.98828-1.0312 1.4844-2.3203 1.4844-3.875v-0.875zm11.688-2.8906v13.656h-7.7031v-3.5469c-1.0312 1.4492-2.1875 2.5078-3.4688 3.1719s-2.8398 1-4.6719 1c-2.4805 0-4.4961-0.72266-6.0469-2.1719-1.543-1.4453-2.3125-3.3203-2.3125-5.625 0-2.8125 0.96094-4.8672 2.8906-6.1719 1.9375-1.3125 4.9688-1.9688 9.0938-1.9688h4.5156v-0.60938c0-1.207-0.48047-2.0938-1.4375-2.6562-0.94922-0.5625-2.4375-0.84375-4.4688-0.84375-1.6367 0-3.1562 0.16797-4.5625 0.5-1.4062 0.32422-2.7188 0.8125-3.9375 1.4688v-5.8281c1.6445-0.40625 3.2891-0.70703 4.9375-0.90625 1.6562-0.20703 3.3047-0.3125 4.9531-0.3125 4.3203 0 7.4375 0.85547 9.3438 2.5625 1.9141 1.6992 2.875 4.4609 2.875 8.2812z"/>
  </symbol>
  <symbol id="f" overflow="visible">
   <path d="m12.031-30.719v6.7969h7.875v5.4688h-7.875v10.141c0 1.1172 0.21875 1.8711 0.65625 2.2656 0.4375 0.38672 1.3125 0.57812 2.625 0.57812h3.9375v5.4688h-6.5625c-3.0234 0-5.1641-0.62891-6.4219-1.8906-1.2617-1.2578-1.8906-3.3984-1.8906-6.4219v-10.141h-3.7969v-5.4688h3.7969v-6.7969z"/>
  </symbol>
  <symbol id="b" overflow="visible">
   <path d="m19.953-20.422v-12.812h7.6875v33.234h-7.6875v-3.4531c-1.0547 1.4062-2.2148 2.4375-3.4844 3.0938-1.2734 0.65625-2.7422 0.98438-4.4062 0.98438-2.9492 0-5.3711-1.1719-7.2656-3.5156-1.8867-2.3438-2.8281-5.3594-2.8281-9.0469s0.94141-6.7031 2.8281-9.0469c1.8945-2.3438 4.3164-3.5156 7.2656-3.5156 1.6562 0 3.1172 0.33594 4.3906 1 1.2812 0.65625 2.4453 1.6836 3.5 3.0781zm-5.0469 15.484c1.6445 0 2.8945-0.59766 3.75-1.7969 0.86328-1.1953 1.2969-2.9297 1.2969-5.2031 0-2.2812-0.43359-4.0195-1.2969-5.2188-0.85547-1.1953-2.1055-1.7969-3.75-1.7969-1.625 0-2.8711 0.60156-3.7344 1.7969-0.85547 1.1992-1.2812 2.9375-1.2812 5.2188 0 2.2734 0.42578 4.0078 1.2812 5.2031 0.86328 1.1992 2.1094 1.7969 3.7344 1.7969z"/>
  </symbol>
  <symbol id="e" overflow="visible">
   <path d="m16.406-4.9375c1.6328 0 2.8828-0.59766 3.75-1.7969 0.86328-1.1953 1.2969-2.9297 1.2969-5.2031 0-2.2812-0.43359-4.0195-1.2969-5.2188-0.86719-1.1953-2.1172-1.7969-3.75-1.7969-1.6367 0-2.8906 0.60547-3.7656 1.8125-0.875 1.1992-1.3125 2.9336-1.3125 5.2031 0 2.2617 0.4375 3.9961 1.3125 5.2031 0.875 1.1992 2.1289 1.7969 3.7656 1.7969zm-5.0781-15.484c1.0508-1.3945 2.2188-2.4219 3.5-3.0781 1.2812-0.66406 2.7539-1 4.4219-1 2.9453 0 5.3672 1.1719 7.2656 3.5156 1.8945 2.3438 2.8438 5.3594 2.8438 9.0469s-0.94922 6.7031-2.8438 9.0469c-1.8984 2.3438-4.3203 3.5156-7.2656 3.5156-1.668 0-3.1406-0.33594-4.4219-1s-2.4492-1.6914-3.5-3.0781v3.4531h-7.6562v-33.234h7.6562z"/>
  </symbol>
  <symbol id="d" overflow="visible">
   <path d="m0.53125-23.922h7.6562l6.4219 16.234 5.4688-16.234h7.6562l-10.062 26.188c-1.0117 2.6641-2.1953 4.5234-3.5469 5.5781-1.3438 1.0625-3.1211 1.5938-5.3281 1.5938h-4.4219v-5.0156h2.3906c1.3008 0 2.2422-0.21094 2.8281-0.625 0.59375-0.40625 1.0547-1.1484 1.3906-2.2188l0.20312-0.65625z"/>
  </symbol>
  <symbol id="c" overflow="visible">
   <path d="m4.0156-31.891h8.2188v31.891h-8.2188z"/>
  </symbol>
  <symbol id="o" overflow="visible">
   <path d="m23-23.172v6.2344c-1.0312-0.71875-2.0742-1.2422-3.125-1.5781-1.043-0.34375-2.125-0.51562-3.25-0.51562-2.1367 0-3.8047 0.625-5 1.875-1.1875 1.2422-1.7812 2.9805-1.7812 5.2188 0 2.2305 0.59375 3.9688 1.7812 5.2188 1.1953 1.25 2.8633 1.875 5 1.875 1.1953 0 2.332-0.17578 3.4062-0.53125 1.0703-0.36328 2.0625-0.89453 2.9688-1.5938v6.2656c-1.1875 0.4375-2.4023 0.76562-3.6406 0.98438-1.2305 0.22656-2.4648 0.34375-3.7031 0.34375-4.3125 0-7.6875-1.1094-10.125-3.3281s-3.6562-5.2969-3.6562-9.2344c0-3.9453 1.2188-7.0234 3.6562-9.2344 2.4375-2.2188 5.8125-3.3281 10.125-3.3281 1.25 0 2.4844 0.10938 3.7031 0.32812s2.4297 0.55469 3.6406 1z"/>
  </symbol>
  <symbol id="n" overflow="visible">
   <path d="m15.062-19.031c-1.6992 0-2.9961 0.60938-3.8906 1.8281-0.88672 1.2188-1.3281 2.9766-1.3281 5.2656 0 2.293 0.44141 4.0469 1.3281 5.2656 0.89453 1.2188 2.1914 1.8281 3.8906 1.8281 1.6641 0 2.9375-0.60938 3.8125-1.8281 0.88281-1.2188 1.3281-2.9727 1.3281-5.2656 0-2.2891-0.44531-4.0469-1.3281-5.2656-0.875-1.2188-2.1484-1.8281-3.8125-1.8281zm0-5.4688c4.1133 0 7.3281 1.1094 9.6406 3.3281s3.4688 5.2969 3.4688 9.2344c0 3.9297-1.1562 7.0078-3.4688 9.2344-2.3125 2.2188-5.5273 3.3281-9.6406 3.3281-4.1367 0-7.3711-1.1094-9.7031-3.3281-2.3242-2.2266-3.4844-5.3047-3.4844-9.2344 0-3.9375 1.1602-7.0156 3.4844-9.2344 2.332-2.2188 5.5664-3.3281 9.7031-3.3281z"/>
  </symbol>
  <symbol id="m" overflow="visible">
   <path d="m27.734-14.562v14.562h-7.7031v-11.156c0-2.0625-0.046875-3.4844-0.14062-4.2656-0.085937-0.78125-0.24219-1.3594-0.46875-1.7344-0.30469-0.5-0.71094-0.88281-1.2188-1.1562-0.51172-0.28125-1.0938-0.42188-1.75-0.42188-1.5938 0-2.8516 0.61719-3.7656 1.8438-0.90625 1.2305-1.3594 2.9375-1.3594 5.125v11.766h-7.6562v-23.922h7.6562v3.5c1.1445-1.3945 2.3633-2.4219 3.6562-3.0781 1.3008-0.66406 2.7383-1 4.3125-1 2.7578 0 4.8516 0.85156 6.2812 2.5469 1.4375 1.6875 2.1562 4.1523 2.1562 7.3906z"/>
  </symbol>
  <symbol id="l" overflow="visible">
   <path d="m22.359-23.172v5.7969c-1.6367-0.67578-3.2148-1.1875-4.7344-1.5312-1.5234-0.34375-2.9609-0.51562-4.3125-0.51562-1.4609 0-2.543 0.18359-3.25 0.54688-0.69922 0.36719-1.0469 0.92188-1.0469 1.6719 0 0.61719 0.26562 1.0898 0.79688 1.4219 0.53125 0.32422 1.4883 0.5625 2.875 0.71875l1.3438 0.1875c3.9141 0.5 6.5508 1.3242 7.9062 2.4688 1.3516 1.1367 2.0312 2.9219 2.0312 5.3594 0 2.5547-0.94531 4.4688-2.8281 5.75-1.875 1.2812-4.6797 1.9219-8.4062 1.9219-1.5859 0-3.2188-0.125-4.9062-0.375s-3.4219-0.625-5.2031-1.125v-5.8125c1.5195 0.74219 3.082 1.2969 4.6875 1.6719 1.6016 0.36719 3.2344 0.54688 4.8906 0.54688 1.4883 0 2.6094-0.20312 3.3594-0.60938 0.75781-0.41406 1.1406-1.0312 1.1406-1.8438 0-0.6875-0.26172-1.1953-0.78125-1.5312-0.52344-0.33203-1.5586-0.59375-3.1094-0.78125l-1.3438-0.17188c-3.4062-0.42578-5.793-1.2109-7.1562-2.3594-1.3672-1.1562-2.0469-2.9102-2.0469-5.2656 0-2.5312 0.86719-4.4062 2.6094-5.625 1.7383-1.2266 4.3984-1.8438 7.9844-1.8438 1.4062 0 2.8828 0.10938 4.4375 0.32812 1.5508 0.21094 3.2383 0.54297 5.0625 1z"/>
  </symbol>
  <symbol id="k" overflow="visible">
   <path d="m4.0156-31.891h22.203v6.2188h-13.984v5.9375h13.141v6.2188h-13.141v13.516h-8.2188z"/>
  </symbol>
  <symbol id="j" overflow="visible">
   <path d="m3.6719-23.922h7.6562v23.922h-7.6562zm0-9.3125h7.6562v6.2344h-7.6562z"/>
  </symbol>
  <symbol id="i" overflow="visible">
   <path d="m3.6719-33.234h7.6562v33.234h-7.6562z"/>
  </symbol>
 </defs>
 <g>
  <path d="m620.68 448.96-26.25-73.148c10.051-21.16 15.25-44.297 15.227-67.727-0.019531-49.797-23.449-96.691-63.262-126.61-39.812-29.922-91.371-39.383-139.21-25.551-0.4375-56.582-31.027-108.63-80.246-136.55-49.223-27.91-109.59-27.441-158.38 1.2266-48.785 28.672-78.566 81.188-78.129 137.77-0.085938 23.422 5.0859 46.566 15.141 67.727l-26.25 73.238v-0.003906c-0.99219 3.0664-0.21875 6.4258 2.0117 8.75 2.4102 2.4023 5.9922 3.1875 9.1875 2.0156l65.711-23.539c26.926 19.566 59.379 30.047 92.664 29.926 14.805-0.050781 29.531-2.168 43.75-6.3008 0.57422 41.656 17.52 81.41 47.172 110.67 29.652 29.262 69.633 45.676 111.29 45.695 33.254 0.10938 65.68-10.371 92.574-29.926l65.801 23.539c3.082 0.96484 6.4453 0.16016 8.75-2.1016 2.5195-2.2969 3.4766-5.8477 2.4492-9.1016zm-457.71-178.76c-2.3438-1.7969-5.4375-2.2891-8.2266-1.3125l-52.5 18.898 21.176-59.238v0.003906c0.94922-2.207 0.94922-4.707 0-6.9141-10.117-19.555-15.426-41.242-15.488-63.262 0.050781-42.684 19.465-83.043 52.781-109.73 33.316-26.68 76.941-36.809 118.61-27.531 41.664 9.2773 76.871 36.953 95.719 75.254 18.852 38.297 19.305 83.078 1.2422 121.75-18.066 38.676-52.699 67.066-94.168 77.188-41.465 10.125-85.285 0.89062-119.14-25.109zm382.2 148.75c-2.8125-1.0117-5.9453-0.51562-8.3125 1.3125-24.523 19.031-54.707 29.316-85.75 29.227-37.363-0.046875-73.18-14.918-99.594-41.344-26.41-26.43-41.258-62.258-41.281-99.621v-3.6758 0.003906c26.191-11.055 48.941-28.934 65.871-51.773 16.926-22.84 27.418-49.805 30.379-78.078 35.402-11.801 74.043-9.0664 107.43 7.6055 33.387 16.672 58.785 45.918 70.621 81.309 11.832 35.395 9.1289 74.035-7.5117 107.44-0.92578 2.1797-0.92578 4.6406 0 6.8242l20.91 59.324z"/>
  <path d="m451.11 245c-10.512 0-20.602 4.1602-28.059 11.566-7.457 7.4102-11.684 17.469-11.754 27.984 0 4.832 3.918 8.75 8.75 8.75s8.75-3.918 8.75-8.75c0.023437-5.9141 2.3945-11.574 6.5859-15.742 4.1953-4.168 9.8711-6.5 15.785-6.4844 5.9141 0.015625 11.578 2.3789 15.75 6.5664 4.1719 4.1914 6.5117 9.8633 6.5039 15.777-0.007813 5.9102-2.3594 11.578-6.543 15.758-4.1836 4.1758-9.8555 6.5234-15.77 6.5234-4.832 0-8.75 3.918-8.75 8.75v14.527c0 4.832 3.918 8.75 8.75 8.75s8.75-3.918 8.75-8.75v-6.4766c12.996-2.7656 23.758-11.836 28.688-24.176 4.9258-12.34 3.3711-26.328-4.1445-37.285-7.5156-10.957-20.004-17.441-33.293-17.289z"/>
  <path d="m248.89 95.199c-10.543 0-20.656 4.1836-28.121 11.629-7.4648 7.4492-11.668 17.555-11.691 28.098 0 4.832 3.918 8.75 8.75 8.75s8.75-3.918 8.75-8.75c0.070313-5.9023 2.4727-11.535 6.6875-15.668 4.2148-4.1328 9.8945-6.4297 15.797-6.3828s11.547 2.4297 15.695 6.6289c4.1484 4.1953 6.4648 9.8672 6.4414 15.77-0.019531 5.9023-2.3828 11.555-6.5625 15.723-4.1836 4.1641-9.8438 6.5039-15.746 6.5039-4.832 0-8.75 3.918-8.75 8.75v14.523c0 4.8359 3.918 8.75 8.75 8.75s8.75-3.9141 8.75-8.75v-6.7383 0.003906c12.996-2.7695 23.758-11.836 28.684-24.176 4.9297-12.344 3.375-26.328-4.1406-37.285-7.5195-10.961-20.008-17.445-33.293-17.289z"/>
  <path d="m242.68 206.76c-1.6133 1.6289-2.5273 3.832-2.5352 6.125 0 4.832 3.918 8.75 8.75 8.75s8.75-3.918 8.75-8.75c-0.011719-2.293-0.92188-4.4961-2.5391-6.125-1.6406-1.6562-3.8789-2.5859-6.2109-2.5859s-4.5703 0.92969-6.2148 2.5859z"/>
  <path d="m210.04 347.81c-29.184 0.65234-56.168 15.66-72.117 40.109-15.949 24.453-18.809 55.195-7.6406 82.168 11.164 26.973 34.918 46.699 63.484 52.723l14.961 31.762c1.4492 3.0391 4.5117 4.9805 7.875 4.9883 3.3984 0.023438 6.5039-1.9219 7.9648-4.9883l16.977-35.961h-0.003906c25.566-10.188 44.941-31.684 52.43-58.164 7.4883-26.48 2.2383-54.938-14.203-77.004-16.441-22.066-42.211-35.234-69.727-35.633zm50.574 138.69c-7.7539 7.9609-17.289 13.957-27.824 17.5-2.2852 0.76953-4.1523 2.4453-5.1602 4.6367l-10.676 22.488-8.75-19.164c-1.2734-2.6641-3.8086-4.5078-6.7383-4.8984-21.336-2.793-40.254-15.113-51.434-33.504-11.176-18.387-13.406-40.855-6.0586-61.082 7.3438-20.227 23.473-36.027 43.844-42.957 20.371-6.9336 42.789-4.2422 60.945 7.3086s30.09 30.715 32.445 52.105c2.3555 21.387-5.1211 42.691-20.328 57.918z"/>
  <path d="m457.32 356.39c-1.6445-1.6562-3.8828-2.5859-6.2148-2.5859s-4.5703 0.92969-6.2109 2.5859c-0.82031 0.81641-1.4492 1.8008-1.8398 2.8867-0.44531 1.0547-0.68359 2.1836-0.69922 3.3281-0.019531 3.5547 2.1133 6.7656 5.3945 8.1289 3.2852 1.3633 7.0664 0.60547 9.5703-1.918 1.6367-1.6523 2.5508-3.8867 2.5352-6.2109 0.03125-1.1484-0.21094-2.2891-0.69922-3.3281-0.47656-1.043-1.0938-2.0117-1.8359-2.8867z"/>
  <path d="m231.22 413.09h-41.648c-4.8359 0-8.75 3.918-8.75 8.75 0 4.8359 3.9141 8.75 8.75 8.75h41.648c4.832 0 8.75-3.9141 8.75-8.75 0-4.832-3.918-8.75-8.75-8.75z"/>
  <path d="m210.04 448.96h-20.473c-4.8359 0-8.75 3.918-8.75 8.75 0 4.8359 3.9141 8.75 8.75 8.75h20.473c4.832 0 8.75-3.9141 8.75-8.75 0-4.832-3.918-8.75-8.75-8.75z"/>
  <use x="78.792969" y="691.25" xlink:href="#p"/>
  <use x="110.902344" y="691.25" xlink:href="#h"/>
  <use x="132.476562" y="691.25" xlink:href="#a"/>
  <use x="162.148438" y="691.25" xlink:href="#g"/>
  <use x="191.671875" y="691.25" xlink:href="#f"/>
  <use x="212.585937" y="691.25" xlink:href="#a"/>
  <use x="242.257812" y="691.25" xlink:href="#b"/>
  <use x="288.804688" y="691.25" xlink:href="#e"/>
  <use x="320.125" y="691.25" xlink:href="#d"/>
  <use x="363.875" y="691.25" xlink:href="#c"/>
  <use x="380.152344" y="691.25" xlink:href="#o"/>
  <use x="406.085937" y="691.25" xlink:href="#n"/>
  <use x="436.140625" y="691.25" xlink:href="#m"/>
  <use x="467.289062" y="691.25" xlink:href="#l"/>
  <use x="508.5625" y="691.25" xlink:href="#k"/>
  <use x="538.445312" y="691.25" xlink:href="#j"/>
  <use x="553.441406" y="691.25" xlink:href="#a"/>
  <use x="583.113281" y="691.25" xlink:href="#i"/>
  <use x="598.113281" y="691.25" xlink:href="#b"/>
 </g>
</svg>
