<?xml version="1.0" encoding="utf-8"?>
<!-- Generator: Adobe Illustrator 16.2.0, SVG Export Plug-In . SVG Version: 6.00 Build 0)  -->
<!DOCTYPE svg PUBLIC "-//W3C//DTD SVG 1.1//EN" "http://www.w3.org/Graphics/SVG/1.1/DTD/svg11.dtd">
<svg version="1.1" id="Layer_1" xmlns="http://www.w3.org/2000/svg" xmlns:xlink="http://www.w3.org/1999/xlink" x="0px" y="0px"
	 width="50px" height="50px" viewBox="0 0 50 50" enable-background="new 0 0 50 50" xml:space="preserve">
<g>
	<polygon fill="#F04E23" points="33.195,18.625 16.804,18.625 24.999,25.336 	"/>
	<path fill="#F04E23" d="M24.24,27.814l-9.594-7.857v11.417h20.707V19.958l-9.593,7.857C25.329,28.166,24.667,28.164,24.24,27.814z"
		/>
	<path fill="#F04E23" d="M0,0v50h50V0H0z M37.751,32.574c0,0.661-0.537,1.199-1.198,1.199H13.447c-0.661,0-1.199-0.538-1.199-1.199
		V17.431c0-0.063,0.004-0.13,0.015-0.196v-0.161l0.057-0.058c0.052-0.142,0.13-0.273,0.23-0.387
		c0.104-0.118,0.231-0.214,0.375-0.283c0.15-0.074,0.313-0.114,0.483-0.119l23.139,0c0.208,0.006,0.365,0.043,0.513,0.112
		c0.149,0.069,0.281,0.168,0.392,0.293c0.077,0.087,0.142,0.186,0.189,0.291l0.096,0.047v0.266c0.011,0.068,0.016,0.136,0.015,0.204
		V32.574z"/>
</g>
</svg>
