<?xml version="1.0" encoding="utf-8"?>
<!-- Generator: Adobe Illustrator 16.2.0, SVG Export Plug-In . SVG Version: 6.00 Build 0)  -->
<!DOCTYPE svg PUBLIC "-//W3C//DTD SVG 1.1//EN" "http://www.w3.org/Graphics/SVG/1.1/DTD/svg11.dtd">
<svg version="1.1" id="Ñëîé_1" xmlns="http://www.w3.org/2000/svg" xmlns:xlink="http://www.w3.org/1999/xlink" x="0px" y="0px"
	 width="80.223px" height="55.261px" viewBox="-14.936 -2.1 80.223 55.261" enable-background="new -14.936 -2.1 80.223 55.261"
	 xml:space="preserve">
<path fill="#FFFFFF" d="M61.969,52.65h-73.583c-1.657,0-3-1.343-3-3V1.41c0-1.657,1.343-3,3-3h73.583c1.657,0,3,1.343,3,3v48.24
	C64.969,51.308,63.626,52.65,61.969,52.65z M-8.615,46.65h67.583V4.41H-8.615V46.65z"/>
<path fill="#FFFFFF" d="M25.176,34.535c-0.674,0-1.348-0.227-1.9-0.679L-13.515,3.731c-1.282-1.05-1.47-2.94-0.421-4.222
	c1.05-1.282,2.94-1.471,4.222-0.421l34.89,28.569L60.068-0.911c1.283-1.05,3.173-0.86,4.222,0.421
	c1.05,1.282,0.861,3.172-0.421,4.222L27.076,33.856C26.523,34.309,25.85,34.535,25.176,34.535z"/>
<path fill="#FFFFFF" d="M61.967,52.363c-0.668,0-1.341-0.223-1.898-0.679L32.474,29.091c-1.282-1.049-1.471-2.939-0.421-4.222
	c1.048-1.281,2.938-1.471,4.222-0.421l27.595,22.594c1.282,1.05,1.471,2.939,0.421,4.222C63.697,51.988,62.836,52.363,61.967,52.363
	z"/>
<path fill="#FFFFFF" d="M-11.615,52.363c-0.869,0-1.73-0.375-2.323-1.1c-1.05-1.282-0.861-3.172,0.421-4.222l27.593-22.594
	c1.283-1.049,3.172-0.861,4.222,0.421s0.861,3.172-0.421,4.222L-9.716,51.685C-10.274,52.141-10.946,52.363-11.615,52.363z"/>
</svg>
