<?xml version="1.0" encoding="utf-8"?>
<!-- Generator: Adobe Illustrator 16.0.0, SVG Export Plug-In . SVG Version: 6.00 Build 0)  -->
<!DOCTYPE svg PUBLIC "-//W3C//DTD SVG 1.1//EN" "http://www.w3.org/Graphics/SVG/1.1/DTD/svg11.dtd">
<svg version="1.1" id="Layer_1" xmlns="http://www.w3.org/2000/svg" xmlns:xlink="http://www.w3.org/1999/xlink" x="0px" y="0px"
	 width="312.797px" height="53px" viewBox="0 0 312.797 53" enable-background="new 0 0 312.797 53" xml:space="preserve">
<polygon fill="#7C8180" points="269.9,2.399 277.73,2.399 303.486,35.642 303.486,2.399 311.797,2.399 311.797,50.478 
	304.723,50.478 278.211,16.274 278.211,50.478 269.9,50.478 "/>
<path fill="#1C75BC" d="M205.926,26.572v-0.133c0-13.054,10.07-23.989,24.318-23.989S254.43,13.25,254.43,26.305v0.134
	c0,13.054-10.07,23.988-24.316,23.988C215.865,50.427,205.926,39.625,205.926,26.572 M245.885,26.572v-0.133
	c0-9.012-6.563-16.5-15.771-16.5c-9.213,0-15.641,7.355-15.641,16.366v0.134c0,9.012,6.561,16.501,15.771,16.501
	C239.457,42.94,245.885,35.583,245.885,26.572"/>
<rect x="182.006" y="2.399" fill="#EE3124" width="8.449" height="48.079"/>
<path fill="#7C8180" d="M125.712,2.399h21.432c6.043,0,10.781,1.785,13.873,4.807C163.559,9.817,165,13.388,165,17.578v0.137
	c0,7.9-4.738,12.638-11.471,14.561l12.982,18.202h-9.959l-11.814-16.759h-10.577v16.759h-8.449V2.399z M146.525,26.232
	c6.043,0,9.891-3.159,9.891-8.036v-0.137c0-5.151-3.709-7.967-9.959-7.967h-12.295v16.14H146.525z"/>
<polygon fill="#FFD600" points="103.644,50.649 112.355,50.649 91.2,2.228 83.37,2.228 62.214,50.649 70.658,50.649 74.583,41.488 
	87.615,33.926 77.798,33.987 87.083,12.324 "/>
<polygon fill="#7C8180" points="1.601,2.399 10.599,2.399 25.229,25.133 39.859,2.399 48.856,2.399 48.856,50.478 40.408,50.478 
	40.408,15.998 25.229,38.664 24.953,38.664 9.912,16.136 9.912,50.478 1.601,50.478 "/>
</svg>
