<?xml version="1.0" encoding="utf-8"?>
<!-- Generator: Adobe Illustrator 16.2.0, SVG Export Plug-In . SVG Version: 6.00 Build 0)  -->
<!DOCTYPE svg PUBLIC "-//W3C//DTD SVG 1.1//EN" "http://www.w3.org/Graphics/SVG/1.1/DTD/svg11.dtd">
<svg version="1.1" id="Ñëîé_1" xmlns="http://www.w3.org/2000/svg" xmlns:xlink="http://www.w3.org/1999/xlink" x="0px" y="0px"
	 width="35.584px" height="50px" viewBox="0 0 35.584 50" enable-background="new 0 0 35.584 50" xml:space="preserve">
<g>
	<path fill="#FFFFFF" d="M13.941,14.218c0.772-0.271,1.693-1.318,1.471-2.09c-0.832-2.883-2.264-7.156-4.623-11.125
		c-0.414-0.697-1.726-0.578-2.454-0.24C8.013,0.912,7.114,1.405,6.854,1.576l5.219,13.222
		C12.398,14.701,13.402,14.406,13.941,14.218z"/>
	<path fill="#FFFFFF" d="M35.04,43.601c-2.207-4.054-5.153-7.468-7.205-9.652c-0.553-0.585-1.92-0.33-2.55,0.196
		c-0.435,0.368-1.202,1.08-1.452,1.31l8.708,11.237c0.279-0.136,1.163-0.657,1.455-0.859C34.657,45.379,35.431,44.313,35.04,43.601z
		"/>
	<path fill="#FFFFFF" d="M21.974,37.047c-0.536,0.434-1.313,0.381-1.785-0.122c-2.463-2.624-4.725-5.658-6.658-9.054
		c-0.032-0.059-0.063-0.115-0.096-0.173c-0.033-0.057-0.065-0.113-0.098-0.17c-1.934-3.395-3.391-6.889-4.39-10.347
		c-0.191-0.663,0.163-1.357,0.808-1.597c0.473-0.177,0.822-0.296,1.122-0.392L5.865,2.139C4.539,2.98,3.151,3.832,1.985,4.77
		C1.046,5.523,0.486,6.664,0.419,7.891c-0.383,7.434,1.511,15.889,5.918,23.623c0.033,0.057,0.066,0.112,0.099,0.17
		c0.032,0.058,0.063,0.114,0.096,0.172c4.402,7.739,10.706,13.683,17.292,17.146c1.09,0.567,2.357,0.669,3.485,0.245
		c1.4-0.523,2.841-1.28,4.241-1.991l-8.667-10.974C22.649,36.491,22.368,36.73,21.974,37.047z"/>
</g>
</svg>
