<?xml version="1.0" encoding="utf-8"?>
<!-- Generator: Adobe Illustrator 16.2.0, SVG Export Plug-In . SVG Version: 6.00 Build 0)  -->
<!DOCTYPE svg PUBLIC "-//W3C//DTD SVG 1.1//EN" "http://www.w3.org/Graphics/SVG/1.1/DTD/svg11.dtd">
<svg version="1.1" id="Layer_1" xmlns="http://www.w3.org/2000/svg" xmlns:xlink="http://www.w3.org/1999/xlink" x="0px" y="0px"
	 width="50px" height="50px" viewBox="0 0 50 50" enable-background="new 0 0 50 50" xml:space="preserve">
<path fill="#2CAAE1" d="M0,0v50h50V0H0z M34.941,19.903c0.011,0.22,0.015,0.439,0.015,0.663c0,6.778-5.159,14.593-14.593,14.593
	c-2.897,0-5.592-0.849-7.863-2.304c0.403,0.049,0.81,0.07,1.224,0.07c2.405,0,4.614-0.818,6.369-2.194
	c-2.243-0.04-4.138-1.523-4.79-3.562c0.313,0.061,0.633,0.092,0.964,0.092c0.468,0,0.921-0.062,1.35-0.181
	c-2.344-0.47-4.114-2.545-4.114-5.029c0-0.021,0-0.042,0-0.064c0.693,0.385,1.483,0.617,2.324,0.641
	c-1.376-0.919-2.281-2.49-2.281-4.27c0-0.94,0.253-1.819,0.694-2.579c2.528,3.104,6.31,5.145,10.571,5.359
	c-0.087-0.375-0.133-0.766-0.133-1.169c0-2.832,2.296-5.127,5.13-5.127c1.474,0,2.808,0.623,3.743,1.617
	c1.167-0.229,2.266-0.656,3.258-1.242c-0.385,1.196-1.196,2.203-2.256,2.835c1.038-0.122,2.026-0.397,2.945-0.806
	C36.813,18.277,35.943,19.18,34.941,19.903z"/>
</svg>
